<?xml version="1.0" encoding="utf-8"?>
<?xml-stylesheet type="text/xsl" href="rss1.xsl"?>
<rss version="2.0" xmlns:atom="http://www.w3.org/2005/Atom" xmlns:content="http://purl.org/rss/1.0/modules/content/" xmlns:dc="http://purl.org/dc/elements/1.1/" xmlns:media="http://search.yahoo.com/mrss/">
<channel>
 <title>Getty</title>
 <link>http://www.gettyimg.com/</link>
 <atom:link href="http://www.gettyimg.com/" rel="self" type="application/rss+xml" />

 
                <item>
                <title><![CDATA[【Music Videos】Funky Diamonds - I Know That You Want Me (DTS-HD 5.1) (Clean)]]></title>
                <link><![CDATA[https://sharemania.us/threads/funky-diamonds-i-know-that-you-want-me-dts-hd-5-1-clean.235071/]]></link>
                <description><![CDATA[<article>
<blockquote class="messageText SelectQuoteContainer ugc baseHtml">
<img src="https://i.ibb.co/qgRYYW1/Funky-Diamonds-I-Know-That-You-Want-Me-DTS-5-1-mp4-thumbs-2024-01-01-15-36-10.jpg" class="bbCodeImage LbImage" alt="[​IMG]" data-url="https://i.ibb.co/qgRYYW1/Funky-Diamonds-I-Know-That-You-Want-Me-DTS-5-1-mp4-thumbs-2024-01-01-15-36-10.jpg" style=""><br>
<br>
<div class="ToggleTriggerAnchor bbCodeSpoilerContainer">
<button type="button" class="button bbCodeSpoilerButton ToggleTrigger Tooltip JsOnly" data-target="> .SpoilerTarget"><span>Spoiler: <span class="SpoilerTitle">Info</span></span></button>
<div class="SpoilerTarget bbCodeSpoilerText">Funky Diamonds - I Know That You Want Me (DTS 5.1).mp4<br>
Format : MPEG-4<br>
Format profile : Base Media / Version 2<br>
Codec ID : mp42 (mp42/mp41)<br>
File size : 71.0 MiB<br>
Duration : 3 min 16 s<br>
Overall bit rate mode : Variable<br>
Overall bit rate : 3 027 kb/s<br>
Frame rate : 90.000 FPS<br>
Encoded date : 2024-01-01 07:20:00 UTC<br>
Tagged date : 2024-01-01 07:20:05 UTC<br>
TIM : 0<br>
TSC : 90<br>
TSZ : 1<br>
<br>
Video<br>
ID : 1<br>
Format : AVC<br>
Format/Info : Advanced Video Codec<br>
Format profile : Main@L3.2<br>
Format settings : CABAC / 4 Ref Frames<br>
Format settings, CABAC : Yes<br>
Format settings, Reference : 4 frames<br>
Codec ID : avc1<br>
Codec ID/Info : Advanced Video Coding<br>
Duration : 3 min 16 s<br>
Bit rate : 2 700 kb/s<br>
Width : 854 pixels<br>
Height : 480 pixels<br>
Display aspect ratio : 16:9<br>
Frame rate mode : Constant<br>
Frame rate : 90.000 FPS<br>
Standard : NTSC<br>
Color space : YUV<br>
Chroma subsampling : 4:2:0<br>
Bit depth : 8 bits<br>
Scan type : Progressive<br>
Bits/(Pixel*Frame) : 0.073<br>
Stream size : 63.4 MiB (89%)<br>
Language : English<br>
Encoded date : 2024-01-01 07:20:00 UTC<br>
Tagged date : 2024-01-01 07:20:00 UTC<br>
Color range : Limited<br>
Color primaries : BT.601 NTSC<br>
Transfer characteristics : BT.601<br>
Matrix coefficients : BT.601<br>
Codec configuration box : avcC<br>
<br>
Audio<br>
ID : 2<br>
Format : AAC LC<br>
Format/Info : Advanced Audio Codec Low Complexity<br>
Codec ID : mp4a-40-2<br>
Duration : 3 min 16 s<br>
Source duration : 3 min 16 s<br>
Bit rate mode : Variable<br>
Bit rate : 317 kb/s<br>
Maximum bit rate : 358 kb/s<br>
Channel(s) : 6 channels<br>
Channel layout : C L R Ls Rs LFE<br>
Sampling rate : 48.0 kHz<br>
Frame rate : 46.875 FPS (1024 SPF)<br>
Compression mode : Lossy<br>
Stream size : 7.45 MiB (10%)<br>
Source stream size : 7.45 MiB (10%)<br>
Language : English<br>
Encoded date : 2024-01-01 07:20:00 UTC<br>
Tagged date : 2024-01-01 07:20:00 UTC</div>
</div><br>
<div class="bbCodeBlock bbCodeVfcHH HiddenContent">
<div class="attribution type">Hidden Content:</div>
<blockquote>You must reply before you can see the hidden data contained here.</blockquote>
</div>*Si alguien tiene alguna fuente de este video con mejor calidad de imagen puede hacermelo saber comentando este post ó enviandome un mensaje por privado para ver la posibilidad de adquirirlo y de esa manera proceder a nuevamente editar este video ya que aún no lo encuentro con una mayor resolución!<br>
<br>
**Este es mi primer post para comenzar a compartir videos, musica, etc... Si hay que corregir algo en el post (Prefix, MediaInfo, etc) le ruego a algun administrador que me envie mensaje por interno para que me enseñe y asi pueda proceder a la edición! <br>
<br>
De antemano muchisimas gracias!!!<br>
------------------------------------------------<br>
*If anyone has a source of this video with better image quality, you can let me know by commenting on this post or sending me a private message to see the possibility of acquiring it and in that way proceed to edit this video again since I still cannot find it with a higher resolution!<br>
<br>
**This is my first post to start sharing videos, music, etc... If something needs to be corrected in the post (Prefix, MediaInfo, etc.) I ask an administrator to send me a message internally so they can show me and so I can proceed to editing! <br>
<br>
Thank you very much in advance!!!
<div class="messageTextEndMarker">&nbsp;</div>
</blockquote>
</article>]]></description>
                <author><![CDATA[DJ-RoGeRs-BS]]></author>
                </item>

                </channel></rss>